HIERARCHY
ROOT Hips
{
	OFFSET 0.000000 0.000000 0.000000
	CHANNELS 6 Xposition Yposition Zposition Xrotation Yrotation Zrotation
	JOINT LeftUpLeg_virtual
	{
		OFFSET 0.000000 0.000000 0.000000
		CHANNELS 3 Xrotation Yrotation Zrotation
		JOINT LeftUpLeg
		{
			OFFSET 15.427100 -6.655098 0.678600
			CHANNELS 3 Xrotation Yrotation Zrotation
			JOINT LeftLeg
			{
				OFFSET 4.081073 -39.591068 13.024000
				CHANNELS 3 Xrotation Yrotation Zrotation
				JOINT LeftFoot
				{
					OFFSET -4.081074 -37.707932 -15.979700
					CHANNELS 3 Xrotation Yrotation Zrotation
					JOINT LeftToeBase
					{
						OFFSET 5.346399 -15.068900 20.645000
						CHANNELS 3 Xrotation Yrotation Zrotation
						JOINT LeftToe_End
						{
							OFFSET 2.754700 0.931300 11.300900
							CHANNELS 3 Xrotation Yrotation Zrotation
							End Site
							{
								OFFSET 0 0 0
							}
						}
					}
				}
			}
		}
	}
	JOINT RightUpLeg_virtual
	{
		OFFSET 0.000000 0.000000 0.000000
		CHANNELS 3 Xrotation Yrotation Zrotation
		JOINT RightUpLeg
		{
			OFFSET -15.569500 -6.655098 0.678600
			CHANNELS 3 Xrotation Yrotation Zrotation
			JOINT RightLeg
			{
				OFFSET -4.081825 -39.591045 13.023800
				CHANNELS 3 Xrotation Yrotation Zrotation
				JOINT RightFoot
				{
					OFFSET 4.081824 -37.707954 -15.979600
					CHANNELS 3 Xrotation Yrotation Zrotation
					JOINT RightToeBase
					{
						OFFSET -5.346400 -15.068900 20.645000
						CHANNELS 3 Xrotation Yrotation Zrotation
						JOINT RightToe_End
						{
							OFFSET -2.754700 0.931300 11.300900
							CHANNELS 3 Xrotation Yrotation Zrotation
							End Site
							{
								OFFSET 0 0 0
							}
						}
					}
				}
			}
		}
	}
	JOINT Spine_virtual
	{
		OFFSET 0.000000 0.000000 0.000000
		CHANNELS 3 Xrotation Yrotation Zrotation
		JOINT Spine
		{
			OFFSET -0.279200 12.230698 -2.892100
			CHANNELS 3 Xrotation Yrotation Zrotation
			JOINT Spine1
			{
				OFFSET -0.232667 10.192268 -1.242267
				CHANNELS 3 Xrotation Yrotation Zrotation
				JOINT Spine1_split
				{
					OFFSET -0.232667 10.192268 -1.242267
					CHANNELS 3 Xrotation Yrotation Zrotation
					JOINT Spine2
					{
						OFFSET -0.232667 10.192268 -1.242267
						CHANNELS 3 Xrotation Yrotation Zrotation
						JOINT Neck_virtual
						{
							OFFSET 0.000000 0.000000 0.000000
							CHANNELS 3 Xrotation Yrotation Zrotation
							JOINT Neck
							{
								OFFSET -0.418800 17.814194 8.416900
								CHANNELS 3 Xrotation Yrotation Zrotation
								JOINT Head
								{
									OFFSET 0.000000 7.031097 3.806800
									CHANNELS 3 Xrotation Yrotation Zrotation
									JOINT HeadTop_End
									{
										OFFSET 0.000000 24.646606 12.978600
										CHANNELS 3 Xrotation Yrotation Zrotation
										End Site
										{
											OFFSET 0 0 0
										}
									}
								}
							}
						}
						JOINT LeftShoulder_virtual
						{
							OFFSET 0.000000 0.000000 0.000000
							CHANNELS 3 Xrotation Yrotation Zrotation
							JOINT LeftShoulder
							{
								OFFSET 8.476499 7.247704 -3.868750
								CHANNELS 3 Xrotation Yrotation Zrotation
								JOINT LeftShoulder_split
								{
									OFFSET 8.476499 7.247704 -3.868750
									CHANNELS 3 Xrotation Yrotation Zrotation
									JOINT LeftArm
									{
										OFFSET 9.308998 -2.777710 0.208600
										CHANNELS 3 Xrotation Yrotation Zrotation
										JOINT LeftForeArm
										{
											OFFSET 29.972298 0.000000 0.000000
											CHANNELS 3 Xrotation Yrotation Zrotation
											JOINT LeftHand
											{
												OFFSET 26.026505 0.000000 0.000000
												CHANNELS 3 Xrotation Yrotation Zrotation
												End Site
												{
													OFFSET 0 0 0
												}
											}
										}
									}
								}
							}
						}
						JOINT RightShoulder_virtual
						{
							OFFSET 0.000000 0.000000 0.000000
							CHANNELS 3 Xrotation Yrotation Zrotation
							JOINT RightShoulder
							{
								OFFSET -7.570500 7.247704 -3.868750
								CHANNELS 3 Xrotation Yrotation Zrotation
								JOINT RightShoulder_split
								{
									OFFSET -7.570500 7.247704 -3.868750
									CHANNELS 3 Xrotation Yrotation Zrotation
									JOINT RightArm
									{
										OFFSET -9.308998 -2.777710 0.208500
										CHANNELS 3 Xrotation Yrotation Zrotation
										JOINT RightForeArm
										{
											OFFSET -29.972300 0.000000 0.000000
											CHANNELS 3 Xrotation Yrotation Zrotation
											JOINT RightHand
											{
												OFFSET -26.026505 0.000000 0.000000
												CHANNELS 3 Xrotation Yrotation Zrotation
												End Site
												{
													OFFSET 0 0 0
												}
											}
										}
									}
								}
							}
						}
					}
				}
			}
		}
	}
}
MOTION
Frames: 7
Frame Time: 0.03333333
0.685033 91.885300 -1.212811 0.000000 0.000000 0.000000 0.458585 -7.960375 -1.045017 -11.784081 20.102809 17.327683 19.109315 8.062380 2.394668 -7.720332 4.820657 -14.852953 2.326409 0.287695 -1.469694 0.000000 0.000000 0.000000 0.963983 -7.171821 -0.987391 -17.153670 -20.243566 -9.844281 20.720065 8.195979 -1.541139 -6.270231 0.728727 3.833693 0.582169 0.411132 1.225328 0.000000 0.000000 0.000000 0.654260 -9.671271 -1.185542 -0.593716 -0.483693 2.062157 -0.907698 -1.115355 1.015507 1.352792 1.454538 -0.370525 0.000000 0.000000 0.000000 -1.145854 -0.497445 0.910348 -5.277263 0.419445 1.339977 -1.150532 8.206172 0.361559 0.000000 0.000000 0.000000 -1.403772 -0.198385 0.582311 -0.549382 9.977958 -2.878755 -3.621942 -0.214165 -0.464060 41.898272 -65.595238 -28.000571 -0.476322 -27.976113 2.093587 0.000000 0.000000 0.000000 -0.311074 -0.326904 0.448813 3.944243 2.591625 3.414391 0.951040 2.379318 -1.253532 -2.367918 37.964340 66.075796 1.261014 25.189394 1.426885 0.000000 0.000000 0.000000 
0.705578 91.899963 -1.036289 0.000000 0.000000 0.000000 0.429639 -8.120025 -0.991739 -11.758974 20.136796 17.229898 18.973516 8.055804 2.436485 -7.864321 4.814572 -14.855258 2.351810 0.260744 -1.401059 0.000000 0.000000 0.000000 1.052644 -7.320273 -0.923103 -17.092070 -20.193113 -9.820099 20.719521 8.152030 -1.572629 -6.252921 0.656067 3.522548 0.512976 0.384786 1.313865 0.000000 0.000000 0.000000 0.700254 -9.692299 -1.222948 -0.659390 -0.533026 2.089813 -0.870305 -1.121953 1.015518 1.376845 1.376180 -0.315068 0.000000 0.000000 0.000000 -1.148487 -0.495193 0.937607 -5.402004 0.544645 1.220090 -1.206438 8.419096 0.409744 0.000000 0.000000 0.000000 -1.321525 -0.203303 0.590944 -0.528021 9.984540 -2.972617 -3.859759 -0.131627 -0.282348 42.122644 -65.619567 -27.864838 -0.355122 -28.204149 2.108923 0.000000 0.000000 0.000000 -0.280499 -0.303149 0.483571 3.918688 2.740371 2.998930 1.181039 2.851371 -1.462181 -2.918289 37.908216 66.493114 1.116880 25.084140 1.340316 0.000000 0.000000 0.000000 
0.781624 91.902359 -0.890781 0.000000 0.000000 0.000000 0.468816 -8.404598 -0.853941 -11.611573 20.244699 17.008474 18.817043 8.082225 2.528451 -7.990766 4.829989 -14.752961 2.363507 0.232624 -1.345884 0.000000 0.000000 0.000000 1.101923 -7.468100 -0.792859 -17.209015 -20.062649 -10.001670 20.996447 8.105011 -1.602409 -6.357081 0.641558 3.176422 0.447746 0.374943 1.374182 0.000000 0.000000 0.000000 0.725183 -9.843819 -1.179371 -0.716563 -0.607373 2.082000 -0.807320 -1.151120 1.019991 1.315855 1.120557 -0.363498 0.000000 0.000000 0.000000 -1.066636 -0.506785 0.955916 -5.602088 0.687606 0.944314 -1.198317 8.658225 0.346957 0.000000 0.000000 0.000000 -1.171202 -0.243983 0.601640 -0.514251 10.034597 -2.975710 -3.921021 -0.079728 -0.195673 41.823263 -65.831508 -28.243988 -0.303864 -28.499019 2.014078 0.000000 0.000000 0.000000 -0.220946 -0.306765 0.533897 3.874747 2.886784 2.374856 1.017909 3.293707 -1.602777 -3.574689 38.733084 67.042507 0.948362 23.877308 1.161973 0.000000 0.000000 0.000000 
0.907208 91.886169 -0.792068 0.000000 0.000000 0.000000 0.551145 -8.722888 -0.636467 -11.401770 20.430617 16.687096 18.651116 8.140259 2.654671 -8.061920 4.863956 -14.518120 2.384864 0.205412 -1.331523 0.000000 0.000000 0.000000 1.147073 -7.590045 -0.592210 -17.552790 -19.876684 -10.411123 21.505008 8.110261 -1.602416 -6.479598 0.738666 2.998720 0.369509 0.388936 1.389752 0.000000 0.000000 0.000000 0.717004 -10.056100 -1.048856 -0.741496 -0.666297 2.044003 -0.717266 -1.181763 1.014403 1.166806 0.754267 -0.424609 0.000000 0.000000 0.000000 -0.936185 -0.517322 0.943305 -5.864095 0.799191 0.608682 -1.146021 8.881760 0.184031 0.000000 0.000000 0.000000 -0.972082 -0.297077 0.595757 -0.513587 10.069299 -2.877454 -3.880502 -0.018762 -0.137639 41.019896 -66.225869 -28.993590 -0.304269 -28.818030 1.857617 0.000000 0.000000 0.000000 -0.116257 -0.324129 0.573123 3.831912 3.022612 1.763639 0.707611 3.493369 -1.560942 -4.283773 40.096557 67.532874 0.774886 22.283212 0.936365 0.000000 0.000000 0.000000 
1.064593 91.865410 -0.756348 0.000000 0.000000 0.000000 0.659545 -8.997269 -0.361261 -11.198478 20.676548 16.317546 18.481920 8.184150 2.785469 -8.051921 4.879555 -14.173756 2.404524 0.178888 -1.360539 0.000000 0.000000 0.000000 1.202057 -7.716812 -0.336452 -18.015869 -19.644141 -10.948961 22.084546 8.181800 -1.586920 -6.600234 0.925345 3.041063 0.188585 0.415694 1.352128 0.000000 0.000000 0.000000 0.686052 -10.277601 -0.859050 -0.733659 -0.648331 1.992020 -0.599075 -1.176765 0.973122 0.944927 0.506939 -0.518048 0.000000 0.000000 0.000000 -0.775092 -0.496542 0.876626 -6.189508 0.846226 0.322769 -1.110387 8.998060 -0.024446 0.000000 0.000000 0.000000 -0.770456 -0.311882 0.559156 -0.532035 10.055246 -2.687992 -3.776678 0.042071 -0.207208 39.773530 -66.817145 -29.933700 -0.306657 -29.045007 1.710361 0.000000 0.000000 0.000000 0.044063 -0.319694 0.567419 3.806981 3.127119 1.412193 0.388826 3.473599 -1.465459 -5.168603 41.624303 67.837248 0.609267 20.959313 0.762178 0.000000 0.000000 0.000000 
1.237227 91.817162 -0.769829 0.000000 0.000000 0.000000 0.766673 -9.242229 -0.060692 -11.065630 20.933845 15.970736 18.316819 8.140252 2.887777 -7.961417 4.838869 -13.814463 2.373168 0.157179 -1.401825 0.000000 0.000000 0.000000 1.266516 -7.836636 -0.056820 -18.481225 -19.344723 -11.492051 22.601842 8.256832 -1.584097 -6.781069 1.120808 3.196160 -0.035757 0.448417 1.274097 0.000000 0.000000 0.000000 0.681958 -10.431241 -0.651951 -0.694275 -0.482723 1.939656 -0.449345 -1.093368 0.883402 0.798303 0.458126 -0.496989 0.000000 0.000000 0.000000 -0.617165 -0.401965 0.760218 -6.570146 0.806834 0.172148 -1.152051 8.936544 -0.230479 0.000000 0.000000 0.000000 -0.610179 -0.254122 0.494633 -0.566479 9.953529 -2.437572 -3.768623 0.117010 -0.399231 38.416785 -67.568917 -30.734782 -0.282231 -29.018571 1.625891 0.000000 0.000000 0.000000 0.220362 -0.260507 0.495962 3.809225 3.227813 1.407410 0.162750 3.385306 -1.201606 -6.461306 42.927251 67.865470 0.464762 19.971425 0.672190 0.000000 0.000000 0.000000 
1.411377 91.760788 -0.826332 0.000000 0.000000 0.000000 0.801641 -9.519349 0.216182 -10.990039 21.164963 15.689699 18.183335 7.983088 2.941192 -7.826739 4.780300 -13.532488 2.302928 0.137502 -1.444938 0.000000 0.000000 0.000000 1.308646 -8.010140 0.195731 -18.866658 -18.967152 -11.932504 23.014457 8.213638 -1.573495 -6.980218 1.239936 3.290786 -0.113980 0.478189 1.191065 0.000000 0.000000 0.000000 0.672908 -10.513592 -0.473739 -0.605062 -0.156553 1.878081 -0.293442 -0.910229 0.747187 0.745969 0.689996 -0.453751 0.000000 0.000000 0.000000 -0.498193 -0.217976 0.593619 -6.997459 0.668935 0.182587 -1.337627 8.652061 -0.387140 0.000000 0.000000 0.000000 -0.496165 -0.086705 0.404839 -0.608347 9.748792 -2.129686 -3.932006 0.323041 -0.590200 37.364502 -68.439752 -31.098439 -0.203068 -28.657254 1.623145 0.000000 0.000000 0.000000 0.385211 -0.104308 0.370297 3.804340 3.331067 1.657246 0.273642 3.395567 -0.868523 -8.426908 44.032218 67.691020 0.321575 19.110936 0.588552 0.000000 0.000000 0.000000 
